<svg width="96" height="23" viewBox="0 0 96 23" fill="none" xmlns="http://www.w3.org/2000/svg">
  <path
    d="M1.19496 14.8301C1.19496 13.2738 1.50991 11.9121 2.1398 10.745C2.7697 9.55928 3.63118 8.64222 4.72424 7.9938C5.83583 7.34537 7.06784 7.02116 8.42027 7.02116C9.75417 7.02116 10.9121 7.30832 11.894 7.88264C12.8759 8.45696 13.6077 9.17949 14.0894 10.0502V7.27126H16.646V22.5H14.0894V19.6655C13.5891 20.5547 12.8388 21.2958 11.8384 21.8886C10.8565 22.4629 9.70786 22.7501 8.39248 22.7501C7.04005 22.7501 5.8173 22.4166 4.72424 21.7497C3.63118 21.0827 2.7697 20.1471 2.1398 18.9429C1.50991 17.7387 1.19496 16.3677 1.19496 14.8301ZM14.0894 14.8578C14.0894 13.7092 13.8578 12.7088 13.3946 11.8566C12.9315 11.0043 12.3016 10.3559 11.5049 9.91128C10.7268 9.44812 9.86533 9.21654 8.92048 9.21654C7.97563 9.21654 7.11415 9.43886 6.33604 9.88349C5.55793 10.3281 4.9373 10.9766 4.47414 11.8288C4.01097 12.681 3.77939 13.6814 3.77939 14.8301C3.77939 15.9972 4.01097 17.0162 4.47414 17.8869C4.9373 18.7391 5.55793 19.3968 6.33604 19.86C7.11415 20.3046 7.97563 20.5269 8.92048 20.5269C9.86533 20.5269 10.7268 20.3046 11.5049 19.86C12.3016 19.3968 12.9315 18.7391 13.3946 17.8869C13.8578 17.0162 14.0894 16.0065 14.0894 14.8578ZM39.2329 6.99337C40.4186 6.99337 41.4746 7.24348 42.4009 7.74369C43.3273 8.22538 44.0591 8.95717 44.5963 9.93907C45.1336 10.921 45.4022 12.1159 45.4022 13.5239V22.5H42.9012V13.8852C42.9012 12.366 42.5214 11.2081 41.7618 10.4115C41.0207 9.59633 40.011 9.18875 38.7327 9.18875C37.4173 9.18875 36.3706 9.61486 35.5925 10.4671C34.8144 11.3008 34.4253 12.5142 34.4253 14.1075V22.5H31.9242V13.8852C31.9242 12.366 31.5445 11.2081 30.7849 10.4115C30.0438 9.59633 29.0341 9.18875 27.7558 9.18875C26.4404 9.18875 25.3937 9.61486 24.6156 10.4671C23.8375 11.3008 23.4484 12.5142 23.4484 14.1075V22.5H20.9195V7.27126H23.4484V9.46665C23.9486 8.67001 24.6156 8.05864 25.4493 7.63253C26.3015 7.20642 27.2371 6.99337 28.256 6.99337C29.5343 6.99337 30.6644 7.28053 31.6463 7.85485C32.6282 8.42917 33.36 9.27212 33.8417 10.3837C34.2678 9.30917 34.9718 8.47548 35.9537 7.88264C36.9356 7.28979 38.0287 6.99337 39.2329 6.99337ZM63.4453 14.302C63.4453 14.7837 63.4175 15.2932 63.3619 15.8305H51.1901C51.2827 17.3311 51.7922 18.5076 52.7185 19.3598C53.6634 20.1935 54.8027 20.6103 56.1366 20.6103C57.2297 20.6103 58.1375 20.3602 58.86 19.86C59.6011 19.3412 60.1198 18.6558 60.4162 17.8035H63.1396C62.7321 19.2671 61.9169 20.4621 60.6941 21.3884C59.4714 22.2962 57.9522 22.7501 56.1366 22.7501C54.6916 22.7501 53.3947 22.4259 52.2461 21.7775C51.116 21.129 50.2267 20.212 49.5783 19.0263C48.9299 17.8221 48.6056 16.4326 48.6056 14.8578C48.6056 13.2831 48.9206 11.9029 49.5505 10.7172C50.1804 9.53149 51.0604 8.62369 52.1905 7.9938C53.3391 7.34537 54.6545 7.02116 56.1366 7.02116C57.5817 7.02116 58.86 7.33611 59.9716 7.96601C61.0832 8.59591 61.9354 9.46665 62.5283 10.5782C63.1396 11.6713 63.4453 12.9126 63.4453 14.302ZM60.8331 13.774C60.8331 12.8107 60.62 11.9862 60.1939 11.3008C59.7678 10.5968 59.1842 10.0688 58.4432 9.71676C57.7206 9.34623 56.9147 9.16096 56.0255 9.16096C54.7472 9.16096 53.6541 9.56854 52.7463 10.3837C51.857 11.1989 51.3476 12.329 51.2179 13.774H60.8331ZM58.7489 2.96387L52.8297 6.13189V4.24219L58.7489 0.768483V2.96387ZM69.3122 1.93565V22.5H66.7833V1.93565H69.3122ZM74.9283 4.79799C74.4466 4.79799 74.039 4.63125 73.7056 4.29777C73.3721 3.96429 73.2054 3.55671 73.2054 3.07502C73.2054 2.59334 73.3721 2.18576 73.7056 1.85228C74.039 1.5188 74.4466 1.35207 74.9283 1.35207C75.3915 1.35207 75.7805 1.5188 76.0955 1.85228C76.429 2.18576 76.5957 2.59334 76.5957 3.07502C76.5957 3.55671 76.429 3.96429 76.0955 4.29777C75.7805 4.63125 75.3915 4.79799 74.9283 4.79799ZM76.1511 7.27126V22.5H73.6222V7.27126H76.1511ZM94.3559 14.302C94.3559 14.7837 94.3281 15.2932 94.2725 15.8305H82.1006C82.1933 17.3311 82.7028 18.5076 83.6291 19.3598C84.5739 20.1935 85.7133 20.6103 87.0472 20.6103C88.1403 20.6103 89.0481 20.3602 89.7706 19.86C90.5116 19.3412 91.0304 18.6558 91.3268 17.8035H94.0502C93.6426 19.2671 92.8275 20.4621 91.6047 21.3884C90.382 22.2962 88.8628 22.7501 87.0472 22.7501C85.6021 22.7501 84.3053 22.4259 83.1567 21.7775C82.0265 21.129 81.1373 20.212 80.4888 19.0263C79.8404 17.8221 79.5162 16.4326 79.5162 14.8578C79.5162 13.2831 79.8312 11.9029 80.4611 10.7172C81.091 9.53149 81.971 8.62369 83.1011 7.9938C84.2497 7.34537 85.5651 7.02116 87.0472 7.02116C88.4923 7.02116 89.7706 7.33611 90.8822 7.96601C91.9938 8.59591 92.846 9.46665 93.4388 10.5782C94.0502 11.6713 94.3559 12.9126 94.3559 14.302ZM91.7437 13.774C91.7437 12.8107 91.5306 11.9862 91.1045 11.3008C90.6784 10.5968 90.0948 10.0688 89.3537 9.71676C88.6312 9.34623 87.8253 9.16096 86.936 9.16096C85.6577 9.16096 84.5647 9.56854 83.6569 10.3837C82.7676 11.1989 82.2581 12.329 82.1284 13.774H91.7437Z"
    fill="#556B2F" />
</svg>
